<?xml version="1.0" encoding="utf-8"?>
<!-- Generator: Adobe Illustrator 18.1.1, SVG Export Plug-In . SVG Version: 6.00 Build 0)  -->
<svg version="1.1" id="Layer_1" xmlns="http://www.w3.org/2000/svg" xmlns:xlink="http://www.w3.org/1999/xlink" x="0px" y="0px"
	 width="640.1px" height="134px" viewBox="441.9 -9 640.1 134" enable-background="new 441.9 -9 640.1 134" xml:space="preserve">
<g>
	<path fill="#66CCCC" d="M508.9-9c-37,0-67,30-67,67s30,67,67,67s67-30,67-67S545.9-9,508.9-9z M505,10.3c5.7,0,10.3,4.6,10.3,10.3
		c0,5.7-4.6,10.3-10.3,10.3c-5.7,0-10.3-4.6-10.3-10.3C494.7,14.9,499.3,10.3,505,10.3z M477.8,58.5c10.4-0.6,8.6-13.3,8.6-13.3
		c0.7-8.3,8.1-5.8,8.1-5.8c8.9,5.1-3.5,16.2-3.5,16.2C485.4,60.3,477.8,58.5,477.8,58.5z M493.4,97.8c-5.9,1.5-11-2.6-11-2.6
		c8.1,3.3,11.3-7,11.3-7c3.5-6,8.2-1.5,8.2-1.5C506.9,93.7,493.4,97.8,493.4,97.8z M516.7,91.5c0,0-19.4,0.2-14.7-20.1
		c0,0,14.2-28.8-10.1-38.2c0,0,19.5,1.6,29.1,17C521,50.2,541.8,86.3,516.7,91.5z M536.5,105.7c3.4-7.8-6.5-11-6.5-11
		c-5.8-3.5-1.3-8-1.3-8c6.9-4.6,10.5,8.4,10.5,8.4C540.6,100.8,536.5,105.7,536.5,105.7z M533.4,35c-6,6.2-15.3,5-15.3,5
		c12.3-2,8.5-16.8,8.5-16.8c-0.2-9.9,8.9-7.9,8.9-7.9C546.7,20.2,533.4,35,533.4,35z"/>
	<g enable-background="new    ">
		<path fill="#66CCCC" d="M585.2,20.1h12.6l3.8,29.3c0.7,6.5,1.5,13.1,2.2,19.8h0.3c1.1-6.6,2.2-13.2,3.3-19.8l5.9-29.3h10.5
			l5.9,29.3c1.1,6.3,2.2,13,3.3,19.8h0.3c0.8-6.7,1.5-13.3,2.3-19.8l3.8-29.3H651l-9.7,62.5h-15.5l-5.4-28.4
			c-0.9-4.8-1.6-9.9-2.2-14.5h-0.3c-0.7,4.6-1.3,9.7-2.3,14.5l-5.1,28.4h-15.2L585.2,20.1z"/>
		<path fill="#66CCCC" d="M654.6,69.4c0-10,7-15.4,23.4-17.4c-0.3-4.2-2-6.9-6.5-6.9c-3.5,0-7,1.6-11,4.3l-4.4-9.3
			c5.3-3.6,11.2-6.2,17.8-6.2c10.6,0,16.5,6.9,16.5,21.5v27.2h-10.1l-0.8-4.9h-0.3c-3.5,3.5-7.4,6-12.1,6
			C659.4,83.8,654.6,77.4,654.6,69.4z M678,68.8v-8.3c-8.7,1.3-11.6,4.2-11.6,7.9c0,3.1,1.8,4.5,4.8,4.5
			C674,72.8,675.8,71.3,678,68.8z"/>
		<path fill="#66CCCC" d="M700.8,65.4V46.1h-5.7V35.6l6.4-0.6l1.4-12.7h10.2v12.7h10v11h-10v19.1c0,5.4,2.1,7.6,5.4,7.6
			c1.3,0,2.8-0.5,3.9-1l1.9,10.3c-2.2,0.8-5.2,1.7-9.2,1.7C704.9,83.8,700.8,76.4,700.8,65.4z"/>
		<path fill="#66CCCC" d="M727.3,58.8c0-15.4,9.6-24.9,19.6-24.9c11.8,0,17.7,9.9,17.7,22.8c0,2.5-0.3,5.1-0.5,6.2h-24.9
			c1.1,6.9,5.3,10.1,10.8,10.1c3.1,0,5.9-1.1,9-3.2l4.1,8.5c-4.3,3.4-9.8,5.4-14.7,5.4C736.5,83.8,727.3,74.6,727.3,58.8z
			 M754.1,53.7c0-5.3-2-9-7-9c-3.9,0-7.2,3-8,9H754.1z"/>
		<path fill="#66CCCC" d="M773.1,35.1h10.1l0.8,8.3h0.3c3-6.4,7.5-9.5,11.8-9.5c2.3,0,3.8,0.4,4.9,1l-2,12.2
			c-1.5-0.5-2.8-0.8-4.5-0.8c-3.1,0-7,2.3-9.1,8.7v27.6h-12.3V35.1z"/>
		<path fill="#66CCCC" d="M802.2,20.1h12.6l3.8,29.3c0.7,6.5,1.5,13.1,2.2,19.8h0.3c1.1-6.6,2.2-13.2,3.3-19.8l5.9-29.3h10.5
			l5.9,29.3c1.1,6.3,2.2,13,3.3,19.8h0.3c0.8-6.7,1.5-13.3,2.3-19.8l3.8-29.3h11.8l-9.7,62.5h-15.5l-5.4-28.4
			c-0.9-4.8-1.6-9.9-2.2-14.5H835c-0.7,4.6-1.3,9.7-2.3,14.5l-5.1,28.4h-15.2L802.2,20.1z"/>
		<path fill="#66CCCC" d="M871.7,69.4c0-10,7-15.4,23.4-17.4c-0.3-4.2-2-6.9-6.5-6.9c-3.5,0-7,1.6-11,4.3l-4.4-9.3
			c5.3-3.6,11.2-6.2,17.8-6.2c10.6,0,16.5,6.9,16.5,21.5v27.2h-10.1l-0.8-4.9h-0.3c-3.5,3.5-7.4,6-12.1,6
			C876.4,83.8,871.7,77.4,871.7,69.4z M895,68.8v-8.3c-8.7,1.3-11.6,4.2-11.6,7.9c0,3.1,1.8,4.5,4.8,4.5
			C891,72.8,892.8,71.3,895,68.8z"/>
		<path fill="#66CCCC" d="M917.7,35.1h10.1l0.8,8.3h0.3c3-6.4,7.5-9.5,11.8-9.5c2.3,0,3.8,0.4,4.9,1l-2,12.2
			c-1.5-0.5-2.8-0.8-4.5-0.8c-3.1,0-7,2.3-9.1,8.7v27.6h-12.3V35.1z"/>
		<path fill="#66CCCC" d="M951.1,35.1h10.1l0.8,8.3h0.3c3-6.4,7.5-9.5,11.8-9.5c2.3,0,3.8,0.4,4.9,1L977,47
			c-1.5-0.5-2.8-0.8-4.5-0.8c-3.1,0-7,2.3-9.1,8.7v27.6h-12.3V35.1z"/>
		<path fill="#66CCCC" d="M983.4,20.7c0-4.3,3-7.3,7.1-7.3c4.2,0,7.1,3,7.1,7.3s-2.9,7.4-7.1,7.4C986.4,28.1,983.4,25,983.4,20.7z
			 M984.4,35.1h12.3v47.6h-12.3V35.1z"/>
		<path fill="#66CCCC" d="M1005.1,58.8c0-15.8,9.7-24.9,20.3-24.9c10.5,0,20.2,9.1,20.2,24.9c0,15.8-9.7,24.9-20.2,24.9
			C1014.8,83.8,1005.1,74.7,1005.1,58.8z M1033,58.8c0-8.2-2.6-13.5-7.6-13.5c-5.1,0-7.6,5.3-7.6,13.5c0,8.2,2.5,13.5,7.6,13.5
			C1030.4,72.4,1033,67.1,1033,58.8z"/>
		<path fill="#66CCCC" d="M1054,35.1h10.1l0.8,8.3h0.3c3-6.4,7.5-9.5,11.8-9.5c2.3,0,3.8,0.4,4.9,1l-2,12.2
			c-1.5-0.5-2.8-0.8-4.5-0.8c-3.1,0-7,2.3-9.1,8.7v27.6H1054V35.1z"/>
	</g>
</g>
</svg>
